<svg xmlns="http://www.w3.org/2000/svg" width="64" height="64" viewBox="0 0 64 64" role="img" aria-label="Pixelschneiderei">
  <rect width="64" height="64" rx="12" fill="#F5F1EC"/>
  <path d="M14 13h30a2 2 0 0 1 2 2v24H12V15a2 2 0 0 1 2-2zM12 39 7 50h48l-9-11" fill="none" stroke="#1A1A1A" stroke-width="3" stroke-linejoin="round"/>
  <path d="M7 50h48l3 5H4l3-5zM18 45h23M15 49h28" fill="none" stroke="#1A1A1A" stroke-width="2" stroke-linecap="round" stroke-linejoin="round"/>
  <rect x="17" y="18" width="7" height="5" fill="#8D2230"/>
  <rect x="17" y="28" width="19" height="7" fill="#D9D9D9"/>
  <path d="M-4 39c9-8 16-6 24 2 8 8 16 8 23-1 7-9 15-9 22 0" fill="none" stroke="#8D2230" stroke-width="2.6" stroke-linecap="round"/>
  <g transform="translate(45 14) rotate(24)">
    <path d="M0 0v30" stroke="#1A1A1A" stroke-width="3" stroke-linecap="round"/>
    <ellipse cx="0" cy="-3" rx="2.3" ry="4" fill="none" stroke="#1A1A1A" stroke-width="2"/>
  </g>
</svg>
