<svg xmlns="http://www.w3.org/2000/svg" width="360" height="288" viewBox="0 0 360 288" role="img" aria-labelledby="title desc">
  <title id="title">Pixelschneiderei Zeichenmarke dunkel</title>
  <desc id="desc">Freigestellter Laptop mit Nadel und rotem Faden für dunkle Hintergründe.</desc>
  <g transform="translate(38 56) scale(.68)">
    <path d="M88 30h226a12 12 0 0 1 12 12v158H76V42a12 12 0 0 1 12-12z" fill="none" stroke="#F5F1EC" stroke-width="6" stroke-linecap="round" stroke-linejoin="round"/>
    <path d="M76 200 28 270h350l-52-70" fill="none" stroke="#F5F1EC" stroke-width="6" stroke-linecap="round" stroke-linejoin="round"/>
    <path d="M28 270h350l22 30H8l20-30z" fill="none" stroke="#F5F1EC" stroke-width="6" stroke-linecap="round" stroke-linejoin="round"/>
    <path d="M115 236h182M98 258h210M74 282h258" fill="none" stroke="#F5F1EC" stroke-width="3.5" stroke-linecap="round"/>
    <path d="M111 219h38M164 219h38M217 219h38M270 219h38M92 242h30M137 242h30M182 242h30M227 242h30M272 242h30" fill="none" stroke="#F5F1EC" stroke-width="3.5" stroke-linecap="round"/>
    <rect x="104" y="60" width="38" height="28" fill="#8D2230"/>
    <rect x="104" y="111" width="166" height="58" rx="3" fill="#D9D9D9" opacity=".18"/>
    <rect x="104" y="181" width="44" height="26" rx="2" fill="#D9D9D9" opacity=".18"/>
    <rect x="161" y="181" width="44" height="26" rx="2" fill="#D9D9D9" opacity=".18"/>
    <rect x="218" y="181" width="44" height="26" rx="2" fill="#D9D9D9" opacity=".18"/>
    <path d="M176 61h116M246 86h28M294 86h26M339 86h24" fill="none" stroke="#A0A0A0" stroke-width="3.5" stroke-linecap="round"/>
    <path d="M0 212c42-44 86-38 128 5 45 47 87 48 122 0 34-48 89-50 132 0 36 42 73 38 106-15" fill="none" stroke="#8D2230" stroke-width="5" stroke-linecap="round" stroke-linejoin="round"/>
    <path d="M224 227c37-88 98-83 128-30" fill="none" stroke="#8D2230" stroke-width="5" stroke-linecap="round"/>
    <g transform="translate(326 32) rotate(24)">
      <path d="M0 0v190" fill="none" stroke="#F5F1EC" stroke-width="6" stroke-linecap="round"/>
      <ellipse cx="0" cy="-12" rx="9" ry="18" fill="none" stroke="#F5F1EC" stroke-width="5"/>
      <path d="M0 178l-12 32h24z" fill="#F5F1EC"/>
      <circle cx="0" cy="-12" r="4" fill="#8D2230"/>
    </g>
  </g>
</svg>
